<?xml version="1.0" encoding="UTF-8" standalone="no"?>
<!DOCTYPE svg PUBLIC "-//W3C//DTD SVG 1.1//EN" "http://www.w3.org/Graphics/SVG/1.1/DTD/svg11.dtd">
<svg version="1.1" xmlns="http://www.w3.org/2000/svg" xmlns:xlink="http://www.w3.org/1999/xlink" preserveAspectRatio="xMidYMid meet" viewBox="0 0 640 640" width="1080" height="1080"><defs><path d="M70 60.11L70 60.11L70 61.21L70 61.21L70 60.11Z" id="c1jwSMGLlo"></path><path d="M0 0L640 0L640 640L0 640L0 0Z" id="b1PQ9FMoWS"></path><path d="M381.87 134.84C392.91 134.84 401.87 143.79 401.87 154.84C401.87 211.93 401.87 363.23 401.87 420.33C401.87 431.38 392.91 440.33 381.87 440.33C351.14 440.33 278.97 440.33 248.24 440.33C237.2 440.33 228.24 431.38 228.24 420.33C228.24 363.23 228.24 211.93 228.24 154.84C228.24 143.79 237.2 134.84 248.24 134.84C278.97 134.84 351.14 134.84 381.87 134.84Z" id="b1byt4MdtX"></path><path d="M305.71 422.75L287.03 461.67L305.71 461.67L292.37 489.78L343.08 450.86L316.39 450.86L335.07 422.75L305.71 422.75Z" id="bek644Xod"></path><path d="M372.44 143.63C382.02 143.63 389.78 151.39 389.78 160.97C389.78 215.08 389.78 360.08 389.78 414.2C389.78 423.77 382.02 431.54 372.44 431.54C345.8 431.54 283.21 431.54 256.57 431.54C246.99 431.54 239.23 423.77 239.23 414.2C239.23 360.08 239.23 215.08 239.23 160.97C239.23 151.39 246.99 143.63 256.57 143.63C283.21 143.63 345.8 143.63 372.44 143.63Z" id="a1l0zRzJhQ"></path><path d="M328.24 411.21C328.24 417.58 322.09 422.75 314.51 422.75C306.92 422.75 300.77 417.58 300.77 411.21C300.77 404.84 306.92 399.67 314.51 399.67C322.09 399.67 328.24 404.84 328.24 411.21Z" id="b7deoL8o"></path><path d="M319.45 157.91C319.45 160.34 317.48 162.31 315.05 162.31C312.63 162.31 310.66 160.34 310.66 157.91C310.66 155.49 312.63 153.52 315.05 153.52C317.48 153.52 319.45 155.49 319.45 157.91Z" id="arUm03der"></path></defs><g><g><g><use xlink:href="#c1jwSMGLlo" opacity="1" fill="#5f347a" fill-opacity="1"></use></g><g><use xlink:href="#b1PQ9FMoWS" opacity="1" fill="#1d6dcf" fill-opacity="1"></use></g><g><use xlink:href="#b1byt4MdtX" opacity="1" fill="#fbfbff" fill-opacity="1"></use></g><g><use xlink:href="#bek644Xod" opacity="1" fill="#ffffff" fill-opacity="1"></use></g><g><use xlink:href="#a1l0zRzJhQ" opacity="1" fill="#1d6dcf" fill-opacity="1"></use></g><g><use xlink:href="#b7deoL8o" opacity="1" fill="#ffffff" fill-opacity="1"></use></g><g><use xlink:href="#arUm03der" opacity="1" fill="#f1f1f6" fill-opacity="1"></use></g></g></g></svg>